<svg viewBox="0 0 16 16" fill="none" xmlns="http://www.w3.org/2000/svg" id="User--Streamline-Unicons" height="16" width="16">
  <desc>
    User Streamline Icon: https://streamlinehq.com
  </desc>
  <path d="M10.895333333333333 8.556133333333332c0.7682 -0.6044666666666666 1.3288666666666666 -1.4331999999999998 1.6040666666666665 -2.3710666666666667 0.27526666666666666 -0.9379333333333333 0.2513333333333333 -1.9382666666666666 -0.06846666666666666 -2.8619333333333334 -0.3197333333333333 -0.9236 -0.9194666666666667 -1.7246 -1.715733333333333 -2.291533333333333S8.9658 0.15999999999999998 7.9883999999999995 0.15999999999999998c-0.9774666666666666 0 -1.9306 0.30466666666666664 -2.7268 0.8715999999999999 -0.7962666666666666 0.5669333333333333 -1.396 1.3679333333333332 -1.715733333333333 2.291533333333333 -0.3198 0.9236666666666666 -0.3438 1.924 -0.06853333333333333 2.8619333333333334 0.2752 0.9378666666666666 0.8358666666666666 1.7666 1.6040666666666665 2.3710666666666667 -1.3162666666666665 0.5273333333333333 -2.4648 1.4020000000000001 -3.3230666666666666 2.530733333333333C0.9 12.215666666666666 0.3641333333333333 13.556133333333332 0.20773333333333333 14.965533333333333c-0.011266666666666664 0.10286666666666666 -0.0022666666666666664 0.207 0.026666666666666665 0.30633333333333335 0.028933333333333332 0.09946666666666666 0.07713333333333333 0.19213333333333332 0.14193333333333333 0.2729333333333333 0.1307333333333333 0.16313333333333332 0.32099999999999995 0.26759999999999995 0.5287999999999999 0.29046666666666665 0.20779999999999998 0.022866666666666664 0.41619999999999996 -0.0378 0.5792666666666666 -0.16853333333333334 0.16313333333333332 -0.1308 0.26759999999999995 -0.32099999999999995 0.29046666666666665 -0.5287999999999999 0.17206666666666665 -1.5317333333333334 0.9023999999999999 -2.9463333333333335 2.0514666666666663 -3.973533333333333 1.1491333333333333 -1.0272666666666666 2.6364 -1.5951333333333333 4.177733333333333 -1.5951333333333333 1.5413333333333332 0 3.028533333333333 0.5678666666666666 4.177733333333333 1.5951333333333333 1.1490666666666667 1.0272 1.8794 2.4417999999999997 2.0514666666666663 3.973533333333333 0.021266666666666663 0.19246666666666667 0.11313333333333332 0.37026666666666663 0.25786666666666663 0.49906666666666666s0.33199999999999996 0.19946666666666668 0.5256666666666666 0.19826666666666665h0.0862c0.2053333333333333 -0.023666666666666662 0.3930666666666667 -0.12746666666666667 0.5223333333333333 -0.289 0.12906666666666666 -0.1614 0.18919999999999998 -0.3674 0.16720000000000002 -0.5728666666666666 -0.15713333333333332 -1.4133999999999998 -0.6958666666666666 -2.7573333333333334 -1.5586666666666666 -3.8878666666666666 -0.8626666666666667 -1.1304666666666665 -2.0167333333333333 -2.0048 -3.338533333333333 -2.5294Zm-2.9069333333333334 -0.5563333333333333c-0.6198666666666666 0 -1.2258666666666667 -0.1838 -1.7412666666666665 -0.5282 -0.5154666666666666 -0.3444666666666667 -0.9171333333333332 -0.8339333333333332 -1.1543999999999999 -1.4066 -0.2372 -0.5726666666666667 -0.2992666666666667 -1.2028666666666665 -0.17833333333333334 -1.8108666666666666 0.12093333333333334 -0.6079333333333333 0.41946666666666665 -1.1663999999999999 0.8577999999999999 -1.6047333333333331 0.43826666666666664 -0.4383333333333333 0.9967333333333334 -0.7368666666666666 1.6046666666666667 -0.8577999999999999 0.6080666666666666 -0.12093333333333334 1.2382 -0.058866666666666664 1.8108666666666666 0.1784 0.5727333333333333 0.2372 1.0621999999999998 0.6389333333333334 1.4066666666666665 1.1543333333333332 0.34433333333333327 0.5154 0.5281333333333333 1.1214 0.5281333333333333 1.7412666666666665 0 0.8312666666666666 -0.3301333333333333 1.6284666666666665 -0.9179999999999999 2.2161999999999997 -0.5877333333333333 0.5878 -1.3848666666666667 0.9179999999999999 -2.216133333333333 0.9179999999999999Z" fill="#000000" stroke-width="0.6667"></path>
</svg>